<svg width="40" height="40" viewBox="0 0 40 40" fill="none" xmlns="http://www.w3.org/2000/svg">
<path d="M20 36.6666C19.6111 36.6666 19.2778 36.5555 19 36.3332C18.7222 36.111 18.5139 35.8194 18.375 35.4583C17.8472 33.9027 17.1806 32.4444 16.375 31.0833C15.5972 29.7221 14.5 28.1249 13.0833 26.2916C11.6667 24.4583 10.5139 22.7083 9.62501 21.0416C8.7639 19.3749 8.33334 17.361 8.33334 14.9999C8.33334 11.7499 9.45834 8.99992 11.7083 6.74992C13.9861 4.47214 16.75 3.33325 20 3.33325C23.25 3.33325 26 4.47214 28.25 6.74992C30.5278 8.99992 31.6667 11.7499 31.6667 14.9999C31.6667 17.5277 31.1806 19.6388 30.2083 21.3333C29.2639 22.9999 28.1667 24.6527 26.9167 26.2916C25.4167 28.2916 24.2778 29.9583 23.5 31.2916C22.75 32.5971 22.125 33.986 21.625 35.4583C21.4861 35.8471 21.2639 36.1527 20.9583 36.3749C20.6806 36.5694 20.3611 36.6666 20 36.6666ZM20 30.7083C20.4722 29.7638 21 28.8333 21.5833 27.9166C22.1945 26.9999 23.0833 25.7777 24.25 24.2499C25.4445 22.6944 26.4167 21.2638 27.1667 19.9582C27.9445 18.6249 28.3333 16.9721 28.3333 14.9999C28.3333 12.6944 27.5139 10.736 25.875 9.12492C24.2639 7.48603 22.3056 6.66658 20 6.66658C17.6945 6.66658 15.7222 7.48603 14.0833 9.12492C12.4722 10.736 11.6667 12.6944 11.6667 14.9999C11.6667 16.9721 12.0417 18.6249 12.7917 19.9582C13.5695 21.2638 14.5556 22.6944 15.75 24.2499C16.9167 25.7777 17.7917 26.9999 18.375 27.9166C18.9861 28.8333 19.5278 29.7638 20 30.7083ZM20 19.1666C21.1667 19.1666 22.1528 18.7638 22.9583 17.9583C23.7639 17.1527 24.1667 16.1666 24.1667 14.9999C24.1667 13.8332 23.7639 12.8471 22.9583 12.0416C22.1528 11.236 21.1667 10.8333 20 10.8333C18.8333 10.8333 17.8472 11.236 17.0417 12.0416C16.2361 12.8471 15.8333 13.8332 15.8333 14.9999C15.8333 16.1666 16.2361 17.1527 17.0417 17.9583C17.8472 18.7638 18.8333 19.1666 20 19.1666Z" fill="white"/>
</svg>
