<svg width="40" height="40" viewBox="0 0 40 40" fill="none" xmlns="http://www.w3.org/2000/svg">
<path d="M6.66666 31.6666V28.3333H9.99999V16.6666C9.99999 14.361 10.6944 12.3194 12.0833 10.5416C13.4722 8.73603 15.2778 7.55547 17.5 6.99992V5.83325C17.5 5.13881 17.7361 4.55547 18.2083 4.08325C18.7083 3.58325 19.3055 3.33325 20 3.33325C20.6944 3.33325 21.2778 3.58325 21.75 4.08325C22.25 4.55547 22.5 5.13881 22.5 5.83325V6.99992C24.7222 7.55547 26.5278 8.73603 27.9167 10.5416C29.3055 12.3194 30 14.361 30 16.6666V28.3333H33.3333V31.6666H6.66666ZM20 36.6666C19.0833 36.6666 18.2917 36.3471 17.625 35.7082C16.9861 35.0416 16.6667 34.2499 16.6667 33.3333H23.3333C23.3333 34.2499 23 35.0416 22.3333 35.7082C21.6944 36.3471 20.9167 36.6666 20 36.6666ZM13.3333 28.3333H26.6667V16.6666C26.6667 14.8333 26.0139 13.2638 24.7083 11.9583C23.4028 10.6527 21.8333 9.99992 20 9.99992C18.1667 9.99992 16.5972 10.6527 15.2917 11.9583C13.9861 13.2638 13.3333 14.8333 13.3333 16.6666V28.3333Z" fill="white"/>
</svg>
