<svg width="40" height="40" viewBox="0 0 40 40" fill="none" xmlns="http://www.w3.org/2000/svg">
<path d="M20 20.0001C18.1667 20.0001 16.5972 19.3473 15.2917 18.0417C13.9861 16.7362 13.3333 15.1667 13.3333 13.3334C13.3333 11.5001 13.9861 9.93064 15.2917 8.62508C16.5972 7.31953 18.1667 6.66675 20 6.66675C21.8333 6.66675 23.4028 7.31953 24.7083 8.62508C26.0139 9.93064 26.6667 11.5001 26.6667 13.3334C26.6667 15.1667 26.0139 16.7362 24.7083 18.0417C23.4028 19.3473 21.8333 20.0001 20 20.0001ZM6.66666 33.3334V28.6667C6.66666 27.7223 6.90971 26.8542 7.39582 26.0626C7.88193 25.2709 8.52777 24.6667 9.33332 24.2501C11.0555 23.389 12.8055 22.7431 14.5833 22.3126C16.3611 21.882 18.1667 21.6667 20 21.6667C21.8333 21.6667 23.6389 21.882 25.4167 22.3126C27.1944 22.7431 28.9444 23.389 30.6667 24.2501C31.4722 24.6667 32.118 25.2709 32.6042 26.0626C33.0903 26.8542 33.3333 27.7223 33.3333 28.6667V33.3334H6.66666ZM9.99999 30.0001H30V28.6667C30 28.3612 29.9236 28.0834 29.7708 27.8334C29.618 27.5834 29.4167 27.389 29.1667 27.2501C27.6667 26.5001 26.1528 25.9376 24.625 25.5626C23.0972 25.1876 21.5555 25.0001 20 25.0001C18.4444 25.0001 16.9028 25.1876 15.375 25.5626C13.8472 25.9376 12.3333 26.5001 10.8333 27.2501C10.5833 27.389 10.3819 27.5834 10.2292 27.8334C10.0764 28.0834 9.99999 28.3612 9.99999 28.6667V30.0001ZM20 16.6667C20.9167 16.6667 21.7014 16.3404 22.3542 15.6876C23.0069 15.0348 23.3333 14.2501 23.3333 13.3334C23.3333 12.4167 23.0069 11.632 22.3542 10.9792C21.7014 10.3265 20.9167 10.0001 20 10.0001C19.0833 10.0001 18.2986 10.3265 17.6458 10.9792C16.993 11.632 16.6667 12.4167 16.6667 13.3334C16.6667 14.2501 16.993 15.0348 17.6458 15.6876C18.2986 16.3404 19.0833 16.6667 20 16.6667Z" fill="white"/>
</svg>
